<mxfile host="app.diagrams.net" agent="Mozilla/5.0 (Macintosh; Intel Mac OS X 10_15_7) AppleWebKit/537.36 (KHTML, like Gecko) Chrome/131.0.0.0 Safari/537.36" version="25.0.3" pages="7">
  <diagram name="Page-1" id="fPFu49-AqL7bVQ7BSO29">
    <mxGraphModel dx="948" dy="611" grid="1" gridSize="10" guides="1" tooltips="1" connect="1" arrows="1" fold="1" page="1" pageScale="1" pageWidth="827" pageHeight="1169" math="0" shadow="0">
      <root>
        <mxCell id="0" />
        <mxCell id="1" parent="0" />
        <mxCell id="Ewxy-CXAb5__aZpogXbp-9" value="" style="html=1;whiteSpace=wrap;strokeWidth=1;" parent="1" vertex="1">
          <mxGeometry x="230" y="80" width="460" height="530" as="geometry" />
        </mxCell>
        <mxCell id="Ewxy-CXAb5__aZpogXbp-10" value="" style="endArrow=open;endFill=1;endSize=12;html=1;rounded=0;strokeWidth=1;" parent="1" target="Ewxy-CXAb5__aZpogXbp-11" edge="1">
          <mxGeometry width="160" relative="1" as="geometry">
            <mxPoint x="190" y="160" as="sourcePoint" />
            <mxPoint x="380" y="220" as="targetPoint" />
          </mxGeometry>
        </mxCell>
        <mxCell id="Ewxy-CXAb5__aZpogXbp-11" value="Add books" style="ellipse;whiteSpace=wrap;html=1;strokeWidth=1;" parent="1" vertex="1">
          <mxGeometry x="290" y="180" width="170" height="80" as="geometry" />
        </mxCell>
        <mxCell id="Ewxy-CXAb5__aZpogXbp-13" value="" style="endArrow=block;dashed=1;endFill=0;endSize=12;html=1;rounded=0;exitX=0.994;exitY=0.413;exitDx=0;exitDy=0;strokeWidth=1;exitPerimeter=0;" parent="1" source="Ewxy-CXAb5__aZpogXbp-11" target="Ewxy-CXAb5__aZpogXbp-14" edge="1">
          <mxGeometry width="160" relative="1" as="geometry">
            <mxPoint x="330" y="320" as="sourcePoint" />
            <mxPoint x="490" y="320" as="targetPoint" />
          </mxGeometry>
        </mxCell>
        <mxCell id="Ewxy-CXAb5__aZpogXbp-14" value="Authenticate&amp;nbsp;" style="ellipse;whiteSpace=wrap;html=1;strokeWidth=1;" parent="1" vertex="1">
          <mxGeometry x="490" y="150" width="170" height="80" as="geometry" />
        </mxCell>
        <mxCell id="Ewxy-CXAb5__aZpogXbp-15" value="&amp;lt;&amp;lt;include&amp;gt;&amp;gt;" style="text;strokeColor=none;align=center;fillColor=none;html=1;verticalAlign=middle;whiteSpace=wrap;rounded=0;strokeWidth=1;" parent="1" vertex="1">
          <mxGeometry x="430" y="160" width="60" height="30" as="geometry" />
        </mxCell>
        <mxCell id="Ewxy-CXAb5__aZpogXbp-16" value="Retrieve book" style="ellipse;whiteSpace=wrap;html=1;strokeWidth=1;" parent="1" vertex="1">
          <mxGeometry x="320" y="270" width="180" height="70" as="geometry" />
        </mxCell>
        <mxCell id="Ewxy-CXAb5__aZpogXbp-17" value="Filter book" style="ellipse;whiteSpace=wrap;html=1;strokeWidth=1;" parent="1" vertex="1">
          <mxGeometry x="470" y="360" width="190" height="80" as="geometry" />
        </mxCell>
        <mxCell id="Ewxy-CXAb5__aZpogXbp-18" value="Update books" style="ellipse;whiteSpace=wrap;html=1;strokeWidth=1;" parent="1" vertex="1">
          <mxGeometry x="260" y="365" width="190" height="70" as="geometry" />
        </mxCell>
        <mxCell id="Ewxy-CXAb5__aZpogXbp-19" value="Delete books" style="ellipse;whiteSpace=wrap;html=1;strokeWidth=1;" parent="1" vertex="1">
          <mxGeometry x="280" y="470" width="200" height="80" as="geometry" />
        </mxCell>
        <mxCell id="Ewxy-CXAb5__aZpogXbp-20" value="" style="endArrow=block;dashed=1;endFill=0;endSize=12;html=1;rounded=0;exitX=0.45;exitY=1.014;exitDx=0;exitDy=0;exitPerimeter=0;strokeWidth=1;" parent="1" source="Ewxy-CXAb5__aZpogXbp-16" target="Ewxy-CXAb5__aZpogXbp-17" edge="1">
          <mxGeometry width="160" relative="1" as="geometry">
            <mxPoint x="330" y="320" as="sourcePoint" />
            <mxPoint x="490" y="320" as="targetPoint" />
          </mxGeometry>
        </mxCell>
        <mxCell id="Ewxy-CXAb5__aZpogXbp-21" value="&amp;lt;&amp;lt;include&amp;gt;&amp;gt;" style="text;strokeColor=none;align=center;fillColor=none;html=1;verticalAlign=middle;whiteSpace=wrap;rounded=0;strokeWidth=1;" parent="1" vertex="1">
          <mxGeometry x="480" y="330" width="60" height="30" as="geometry" />
        </mxCell>
        <mxCell id="Ewxy-CXAb5__aZpogXbp-24" value="" style="endArrow=open;endFill=1;endSize=12;html=1;rounded=0;entryX=0;entryY=0;entryDx=0;entryDy=0;strokeWidth=1;" parent="1" target="Ewxy-CXAb5__aZpogXbp-18" edge="1">
          <mxGeometry width="160" relative="1" as="geometry">
            <mxPoint x="180" y="210" as="sourcePoint" />
            <mxPoint x="490" y="320" as="targetPoint" />
          </mxGeometry>
        </mxCell>
        <mxCell id="Ewxy-CXAb5__aZpogXbp-25" value="" style="endArrow=open;endFill=1;endSize=12;html=1;rounded=0;entryX=0;entryY=0.5;entryDx=0;entryDy=0;strokeWidth=1;" parent="1" target="Ewxy-CXAb5__aZpogXbp-19" edge="1">
          <mxGeometry width="160" relative="1" as="geometry">
            <mxPoint x="170" y="230" as="sourcePoint" />
            <mxPoint x="490" y="320" as="targetPoint" />
          </mxGeometry>
        </mxCell>
        <mxCell id="Ewxy-CXAb5__aZpogXbp-1" value="User&amp;nbsp; &amp;nbsp; &amp;nbsp;&amp;nbsp;&lt;div&gt;&lt;br&gt;&lt;/div&gt;" style="shape=umlActor;verticalLabelPosition=bottom;verticalAlign=top;html=1;strokeWidth=1;" parent="1" vertex="1">
          <mxGeometry x="120" y="140" width="50" height="80" as="geometry" />
        </mxCell>
        <mxCell id="Ewxy-CXAb5__aZpogXbp-26" value="BIM System&amp;nbsp;" style="text;strokeColor=none;align=center;fillColor=none;html=1;verticalAlign=middle;whiteSpace=wrap;rounded=0;strokeWidth=1;" parent="1" vertex="1">
          <mxGeometry x="250" y="90" width="80" height="50" as="geometry" />
        </mxCell>
        <mxCell id="x-X4Lpwg3tGxkz7zBI2r-1" value="" style="endArrow=open;endFill=1;endSize=12;html=1;rounded=0;entryX=0;entryY=0.5;entryDx=0;entryDy=0;" parent="1" target="Ewxy-CXAb5__aZpogXbp-16" edge="1">
          <mxGeometry width="160" relative="1" as="geometry">
            <mxPoint x="180" y="190" as="sourcePoint" />
            <mxPoint x="490" y="330" as="targetPoint" />
          </mxGeometry>
        </mxCell>
        <mxCell id="Ao0ABDRLXxvFeHoDssS6-1" value="" style="endArrow=block;dashed=1;endFill=0;endSize=12;html=1;rounded=0;exitX=1;exitY=0.5;exitDx=0;exitDy=0;" parent="1" source="Ewxy-CXAb5__aZpogXbp-16" edge="1">
          <mxGeometry width="160" relative="1" as="geometry">
            <mxPoint x="460" y="460" as="sourcePoint" />
            <mxPoint x="540" y="270" as="targetPoint" />
          </mxGeometry>
        </mxCell>
        <mxCell id="Ao0ABDRLXxvFeHoDssS6-2" value="Sort books" style="ellipse;whiteSpace=wrap;html=1;" parent="1" vertex="1">
          <mxGeometry x="550" y="240" width="140" height="70" as="geometry" />
        </mxCell>
        <mxCell id="Ao0ABDRLXxvFeHoDssS6-3" value="&amp;lt;&amp;lt;include&amp;gt;&amp;gt;" style="text;strokeColor=none;align=center;fillColor=none;html=1;verticalAlign=middle;whiteSpace=wrap;rounded=0;" parent="1" vertex="1">
          <mxGeometry x="480" y="250" width="60" height="30" as="geometry" />
        </mxCell>
        <mxCell id="szS85sLdsVo0_yHShwM3-2" value="Book" style="swimlane;fontStyle=0;childLayout=stackLayout;horizontal=1;startSize=26;fillColor=none;horizontalStack=0;resizeParent=1;resizeParentMax=0;resizeLast=0;collapsible=1;marginBottom=0;whiteSpace=wrap;html=1;" parent="1" vertex="1">
          <mxGeometry x="230" y="850" width="140" height="80" as="geometry" />
        </mxCell>
        <mxCell id="szS85sLdsVo0_yHShwM3-6" value="Author&amp;nbsp;" style="swimlane;fontStyle=0;childLayout=stackLayout;horizontal=1;startSize=26;fillColor=none;horizontalStack=0;resizeParent=1;resizeParentMax=0;resizeLast=0;collapsible=1;marginBottom=0;whiteSpace=wrap;html=1;" parent="1" vertex="1">
          <mxGeometry x="450" y="840" width="140" height="104" as="geometry" />
        </mxCell>
        <mxCell id="szS85sLdsVo0_yHShwM3-7" value="+ field: type" style="text;strokeColor=none;fillColor=none;align=left;verticalAlign=top;spacingLeft=4;spacingRight=4;overflow=hidden;rotatable=0;points=[[0,0.5],[1,0.5]];portConstraint=eastwest;whiteSpace=wrap;html=1;" parent="szS85sLdsVo0_yHShwM3-6" vertex="1">
          <mxGeometry y="26" width="140" height="26" as="geometry" />
        </mxCell>
        <mxCell id="szS85sLdsVo0_yHShwM3-8" value="+ field: type" style="text;strokeColor=none;fillColor=none;align=left;verticalAlign=top;spacingLeft=4;spacingRight=4;overflow=hidden;rotatable=0;points=[[0,0.5],[1,0.5]];portConstraint=eastwest;whiteSpace=wrap;html=1;" parent="szS85sLdsVo0_yHShwM3-6" vertex="1">
          <mxGeometry y="52" width="140" height="26" as="geometry" />
        </mxCell>
        <mxCell id="szS85sLdsVo0_yHShwM3-9" value="+ field: type" style="text;strokeColor=none;fillColor=none;align=left;verticalAlign=top;spacingLeft=4;spacingRight=4;overflow=hidden;rotatable=0;points=[[0,0.5],[1,0.5]];portConstraint=eastwest;whiteSpace=wrap;html=1;" parent="szS85sLdsVo0_yHShwM3-6" vertex="1">
          <mxGeometry y="78" width="140" height="26" as="geometry" />
        </mxCell>
        <mxCell id="szS85sLdsVo0_yHShwM3-11" value="Title&amp;nbsp;" style="swimlane;fontStyle=0;childLayout=stackLayout;horizontal=1;startSize=26;fillColor=none;horizontalStack=0;resizeParent=1;resizeParentMax=0;resizeLast=0;collapsible=1;marginBottom=0;whiteSpace=wrap;html=1;" parent="1" vertex="1">
          <mxGeometry x="220" y="988" width="140" height="104" as="geometry" />
        </mxCell>
        <mxCell id="szS85sLdsVo0_yHShwM3-12" value="+ field: type" style="text;strokeColor=none;fillColor=none;align=left;verticalAlign=top;spacingLeft=4;spacingRight=4;overflow=hidden;rotatable=0;points=[[0,0.5],[1,0.5]];portConstraint=eastwest;whiteSpace=wrap;html=1;" parent="szS85sLdsVo0_yHShwM3-11" vertex="1">
          <mxGeometry y="26" width="140" height="26" as="geometry" />
        </mxCell>
        <mxCell id="szS85sLdsVo0_yHShwM3-13" value="+ field: type" style="text;strokeColor=none;fillColor=none;align=left;verticalAlign=top;spacingLeft=4;spacingRight=4;overflow=hidden;rotatable=0;points=[[0,0.5],[1,0.5]];portConstraint=eastwest;whiteSpace=wrap;html=1;" parent="szS85sLdsVo0_yHShwM3-11" vertex="1">
          <mxGeometry y="52" width="140" height="26" as="geometry" />
        </mxCell>
        <mxCell id="szS85sLdsVo0_yHShwM3-14" value="+ field: type" style="text;strokeColor=none;fillColor=none;align=left;verticalAlign=top;spacingLeft=4;spacingRight=4;overflow=hidden;rotatable=0;points=[[0,0.5],[1,0.5]];portConstraint=eastwest;whiteSpace=wrap;html=1;" parent="szS85sLdsVo0_yHShwM3-11" vertex="1">
          <mxGeometry y="78" width="140" height="26" as="geometry" />
        </mxCell>
        <mxCell id="szS85sLdsVo0_yHShwM3-15" value="Price&amp;nbsp;" style="swimlane;fontStyle=0;childLayout=stackLayout;horizontal=1;startSize=26;fillColor=none;horizontalStack=0;resizeParent=1;resizeParentMax=0;resizeLast=0;collapsible=1;marginBottom=0;whiteSpace=wrap;html=1;" parent="1" vertex="1">
          <mxGeometry x="450" y="1000" width="140" height="104" as="geometry" />
        </mxCell>
        <mxCell id="szS85sLdsVo0_yHShwM3-16" value="+ field: type" style="text;strokeColor=none;fillColor=none;align=left;verticalAlign=top;spacingLeft=4;spacingRight=4;overflow=hidden;rotatable=0;points=[[0,0.5],[1,0.5]];portConstraint=eastwest;whiteSpace=wrap;html=1;" parent="szS85sLdsVo0_yHShwM3-15" vertex="1">
          <mxGeometry y="26" width="140" height="26" as="geometry" />
        </mxCell>
        <mxCell id="szS85sLdsVo0_yHShwM3-17" value="+ field: type" style="text;strokeColor=none;fillColor=none;align=left;verticalAlign=top;spacingLeft=4;spacingRight=4;overflow=hidden;rotatable=0;points=[[0,0.5],[1,0.5]];portConstraint=eastwest;whiteSpace=wrap;html=1;" parent="szS85sLdsVo0_yHShwM3-15" vertex="1">
          <mxGeometry y="52" width="140" height="26" as="geometry" />
        </mxCell>
        <mxCell id="szS85sLdsVo0_yHShwM3-18" value="+ field: type" style="text;strokeColor=none;fillColor=none;align=left;verticalAlign=top;spacingLeft=4;spacingRight=4;overflow=hidden;rotatable=0;points=[[0,0.5],[1,0.5]];portConstraint=eastwest;whiteSpace=wrap;html=1;" parent="szS85sLdsVo0_yHShwM3-15" vertex="1">
          <mxGeometry y="78" width="140" height="26" as="geometry" />
        </mxCell>
        <mxCell id="szS85sLdsVo0_yHShwM3-19" value="" style="endArrow=diamondThin;endFill=0;endSize=24;html=1;rounded=0;exitX=0.429;exitY=-0.01;exitDx=0;exitDy=0;exitPerimeter=0;" parent="1" source="szS85sLdsVo0_yHShwM3-11" edge="1">
          <mxGeometry width="160" relative="1" as="geometry">
            <mxPoint x="350" y="970" as="sourcePoint" />
            <mxPoint x="280" y="920" as="targetPoint" />
          </mxGeometry>
        </mxCell>
        <mxCell id="szS85sLdsVo0_yHShwM3-20" value="" style="endArrow=diamondThin;endFill=0;endSize=24;html=1;rounded=0;exitX=-0.029;exitY=0.808;exitDx=0;exitDy=0;entryX=1;entryY=0.5;entryDx=0;entryDy=0;exitPerimeter=0;" parent="1" source="szS85sLdsVo0_yHShwM3-7" target="szS85sLdsVo0_yHShwM3-2" edge="1">
          <mxGeometry width="160" relative="1" as="geometry">
            <mxPoint x="350" y="970" as="sourcePoint" />
            <mxPoint x="510" y="970" as="targetPoint" />
          </mxGeometry>
        </mxCell>
        <mxCell id="szS85sLdsVo0_yHShwM3-21" value="" style="endArrow=diamondThin;endFill=0;endSize=24;html=1;rounded=0;exitX=-0.014;exitY=0.231;exitDx=0;exitDy=0;exitPerimeter=0;" parent="1" source="szS85sLdsVo0_yHShwM3-17" edge="1">
          <mxGeometry width="160" relative="1" as="geometry">
            <mxPoint x="350" y="970" as="sourcePoint" />
            <mxPoint x="370" y="920" as="targetPoint" />
            <Array as="points">
              <mxPoint x="400" y="1060" />
              <mxPoint x="400" y="920" />
            </Array>
          </mxGeometry>
        </mxCell>
      </root>
    </mxGraphModel>
  </diagram>
  <diagram id="XhLWtZshC2rK_p-8POBp" name="Add function">
    <mxGraphModel dx="714" dy="620" grid="1" gridSize="10" guides="1" tooltips="1" connect="1" arrows="1" fold="1" page="1" pageScale="1" pageWidth="827" pageHeight="1169" math="0" shadow="0">
      <root>
        <mxCell id="0" />
        <mxCell id="1" parent="0" />
        <mxCell id="A9Y0jLUakrSm3WK9ncbO-2" value="" style="shape=umlLifeline;perimeter=lifelinePerimeter;whiteSpace=wrap;html=1;container=1;dropTarget=0;collapsible=0;recursiveResize=0;outlineConnect=0;portConstraint=eastwest;newEdgeStyle={&quot;curved&quot;:0,&quot;rounded&quot;:0};participant=umlActor;" parent="1" vertex="1">
          <mxGeometry x="230" y="730" width="20" height="440" as="geometry" />
        </mxCell>
        <mxCell id="A9Y0jLUakrSm3WK9ncbO-3" value="BIM System&amp;nbsp;&lt;div&gt;add_records&amp;nbsp;&lt;/div&gt;" style="shape=umlLifeline;perimeter=lifelinePerimeter;whiteSpace=wrap;html=1;container=1;dropTarget=0;collapsible=0;recursiveResize=0;outlineConnect=0;portConstraint=eastwest;newEdgeStyle={&quot;curved&quot;:0,&quot;rounded&quot;:0};" parent="1" vertex="1">
          <mxGeometry x="414" y="730" width="100" height="440" as="geometry" />
        </mxCell>
        <mxCell id="A9Y0jLUakrSm3WK9ncbO-4" value="User database&amp;nbsp;" style="shape=umlLifeline;perimeter=lifelinePerimeter;whiteSpace=wrap;html=1;container=1;dropTarget=0;collapsible=0;recursiveResize=0;outlineConnect=0;portConstraint=eastwest;newEdgeStyle={&quot;curved&quot;:0,&quot;rounded&quot;:0};" parent="1" vertex="1">
          <mxGeometry x="620" y="730" width="100" height="450" as="geometry" />
        </mxCell>
        <mxCell id="YZa4W2t2khYprb9LWobO-5" value="" style="html=1;points=[[0,0,0,0,5],[0,1,0,0,-5],[1,0,0,0,5],[1,1,0,0,-5]];perimeter=orthogonalPerimeter;outlineConnect=0;targetShapes=umlLifeline;portConstraint=eastwest;newEdgeStyle={&quot;curved&quot;:0,&quot;rounded&quot;:0};" parent="A9Y0jLUakrSm3WK9ncbO-4" vertex="1">
          <mxGeometry x="50" y="190" width="10" height="40" as="geometry" />
        </mxCell>
        <mxCell id="YZa4W2t2khYprb9LWobO-6" value="Adding the records" style="html=1;align=left;spacingLeft=2;endArrow=block;rounded=0;edgeStyle=orthogonalEdgeStyle;curved=0;rounded=0;" parent="A9Y0jLUakrSm3WK9ncbO-4" edge="1">
          <mxGeometry relative="1" as="geometry">
            <mxPoint x="60" y="195" as="sourcePoint" />
            <Array as="points">
              <mxPoint x="90" y="195" />
              <mxPoint x="90" y="225" />
            </Array>
            <mxPoint x="65" y="225" as="targetPoint" />
          </mxGeometry>
        </mxCell>
        <mxCell id="A9Y0jLUakrSm3WK9ncbO-5" value="" style="endArrow=open;endFill=1;endSize=12;html=1;rounded=0;" parent="1" source="pXFOGsAjKWdgBzz6KRak-1" target="A9Y0jLUakrSm3WK9ncbO-3" edge="1">
          <mxGeometry width="160" relative="1" as="geometry">
            <mxPoint x="240" y="820" as="sourcePoint" />
            <mxPoint x="400" y="820" as="targetPoint" />
          </mxGeometry>
        </mxCell>
        <mxCell id="A9Y0jLUakrSm3WK9ncbO-7" value="alt" style="shape=umlFrame;whiteSpace=wrap;html=1;pointerEvents=0;" parent="1" vertex="1">
          <mxGeometry x="200" y="870" width="340" height="230" as="geometry" />
        </mxCell>
        <mxCell id="A9Y0jLUakrSm3WK9ncbO-15" value="" style="endArrow=open;endFill=1;endSize=12;html=1;rounded=0;" parent="1" edge="1">
          <mxGeometry width="160" relative="1" as="geometry">
            <mxPoint x="460" y="919.9999999999999" as="sourcePoint" />
            <mxPoint x="669.5" y="919.9999999999999" as="targetPoint" />
          </mxGeometry>
        </mxCell>
        <mxCell id="A9Y0jLUakrSm3WK9ncbO-16" value="The records" style="edgeLabel;html=1;align=center;verticalAlign=middle;resizable=0;points=[];" parent="A9Y0jLUakrSm3WK9ncbO-15" vertex="1" connectable="0">
          <mxGeometry x="0.1834" y="2" relative="1" as="geometry">
            <mxPoint as="offset" />
          </mxGeometry>
        </mxCell>
        <mxCell id="A9Y0jLUakrSm3WK9ncbO-20" value="" style="html=1;verticalAlign=bottom;endArrow=open;dashed=1;endSize=8;curved=0;rounded=0;" parent="1" edge="1">
          <mxGeometry x="-0.1833" y="20" relative="1" as="geometry">
            <mxPoint x="460" y="940" as="sourcePoint" />
            <mxPoint x="239.59090909090924" y="940" as="targetPoint" />
            <Array as="points">
              <mxPoint x="440" y="940" />
            </Array>
            <mxPoint as="offset" />
          </mxGeometry>
        </mxCell>
        <mxCell id="QLSTHQQ-JR-2_QXSCp5h-5" value="Return successful&amp;nbsp;" style="edgeLabel;html=1;align=center;verticalAlign=middle;resizable=0;points=[];" parent="A9Y0jLUakrSm3WK9ncbO-20" vertex="1" connectable="0">
          <mxGeometry x="-0.0159" y="-2" relative="1" as="geometry">
            <mxPoint as="offset" />
          </mxGeometry>
        </mxCell>
        <mxCell id="pXFOGsAjKWdgBzz6KRak-3" value="" style="endArrow=open;endFill=1;endSize=12;html=1;rounded=0;" parent="1" edge="1">
          <mxGeometry width="160" relative="1" as="geometry">
            <mxPoint x="240" y="810" as="sourcePoint" />
            <mxPoint x="460" y="810" as="targetPoint" />
          </mxGeometry>
        </mxCell>
        <mxCell id="pXFOGsAjKWdgBzz6KRak-4" value="Book name, author, date and price&amp;nbsp;" style="edgeLabel;html=1;align=center;verticalAlign=middle;resizable=0;points=[];" parent="pXFOGsAjKWdgBzz6KRak-3" vertex="1" connectable="0">
          <mxGeometry x="-0.1492" y="-1" relative="1" as="geometry">
            <mxPoint as="offset" />
          </mxGeometry>
        </mxCell>
        <mxCell id="pXFOGsAjKWdgBzz6KRak-1" value="" style="html=1;points=[[0,0,0,0,5],[0,1,0,0,-5],[1,0,0,0,5],[1,1,0,0,-5]];perimeter=orthogonalPerimeter;outlineConnect=0;targetShapes=umlLifeline;portConstraint=eastwest;newEdgeStyle={&quot;curved&quot;:0,&quot;rounded&quot;:0};" parent="1" vertex="1">
          <mxGeometry x="460" y="810" width="10" height="330" as="geometry" />
        </mxCell>
        <mxCell id="ezqVvenWFUbMWcHfVEQS-1" value="Loop" style="shape=umlFrame;whiteSpace=wrap;html=1;pointerEvents=0;" parent="1" vertex="1">
          <mxGeometry x="170" y="790" width="460" height="350" as="geometry" />
        </mxCell>
        <mxCell id="e0FYWp1vl0VHIIdUR4HF-1" value="" style="html=1;points=[[0,0,0,0,5],[0,1,0,0,-5],[1,0,0,0,5],[1,1,0,0,-5]];perimeter=orthogonalPerimeter;outlineConnect=0;targetShapes=umlLifeline;portConstraint=eastwest;newEdgeStyle={&quot;curved&quot;:0,&quot;rounded&quot;:0};" parent="1" vertex="1">
          <mxGeometry x="470" y="820" width="10" height="100" as="geometry" />
        </mxCell>
        <mxCell id="e0FYWp1vl0VHIIdUR4HF-2" value="Check&amp;nbsp;" style="html=1;align=left;spacingLeft=2;endArrow=block;rounded=0;edgeStyle=orthogonalEdgeStyle;curved=0;rounded=0;" parent="1" edge="1">
          <mxGeometry relative="1" as="geometry">
            <mxPoint x="480" y="825" as="sourcePoint" />
            <Array as="points">
              <mxPoint x="510" y="855" />
            </Array>
            <mxPoint x="485" y="855" as="targetPoint" />
          </mxGeometry>
        </mxCell>
        <mxCell id="YZa4W2t2khYprb9LWobO-1" value="" style="line;strokeWidth=1;fillColor=none;align=left;verticalAlign=middle;spacingTop=-1;spacingLeft=3;spacingRight=3;rotatable=0;labelPosition=right;points=[];portConstraint=eastwest;strokeColor=inherit;" parent="1" vertex="1">
          <mxGeometry x="200" y="981" width="340" height="8" as="geometry" />
        </mxCell>
        <mxCell id="YZa4W2t2khYprb9LWobO-2" value="" style="html=1;verticalAlign=bottom;endArrow=open;dashed=1;endSize=8;curved=0;rounded=0;" parent="1" target="A9Y0jLUakrSm3WK9ncbO-2" edge="1">
          <mxGeometry relative="1" as="geometry">
            <mxPoint x="460" y="1040" as="sourcePoint" />
            <mxPoint x="380" y="1040" as="targetPoint" />
          </mxGeometry>
        </mxCell>
        <mxCell id="YZa4W2t2khYprb9LWobO-4" value="&lt;span style=&quot;font-size: 12px; background-color: rgb(251, 251, 251);&quot;&gt;Adding fail / records exist&lt;/span&gt;" style="edgeLabel;html=1;align=center;verticalAlign=middle;resizable=0;points=[];" parent="YZa4W2t2khYprb9LWobO-2" vertex="1" connectable="0">
          <mxGeometry x="-0.0194" y="-2" relative="1" as="geometry">
            <mxPoint as="offset" />
          </mxGeometry>
        </mxCell>
        <mxCell id="YZa4W2t2khYprb9LWobO-7" value="[Records = new]" style="text;html=1;align=center;verticalAlign=middle;resizable=0;points=[];autosize=1;strokeColor=none;fillColor=none;" parent="1" vertex="1">
          <mxGeometry x="250" y="878" width="110" height="30" as="geometry" />
        </mxCell>
        <mxCell id="YZa4W2t2khYprb9LWobO-8" value="[Records = duplicate]" style="text;html=1;align=center;verticalAlign=middle;resizable=0;points=[];autosize=1;strokeColor=none;fillColor=none;" parent="1" vertex="1">
          <mxGeometry x="240" y="989" width="140" height="30" as="geometry" />
        </mxCell>
      </root>
    </mxGraphModel>
  </diagram>
  <diagram id="oWKX08KDxNSF50weiXlX" name="Delete function ">
    <mxGraphModel dx="585" dy="394" grid="1" gridSize="10" guides="1" tooltips="1" connect="1" arrows="1" fold="1" page="1" pageScale="1" pageWidth="827" pageHeight="1169" math="0" shadow="0">
      <root>
        <mxCell id="0" />
        <mxCell id="1" parent="0" />
        <mxCell id="fUh1H2vm5ostUlrf6R6P-2" value="BIM system delete_records" style="shape=umlLifeline;perimeter=lifelinePerimeter;whiteSpace=wrap;html=1;container=1;dropTarget=0;collapsible=0;recursiveResize=0;outlineConnect=0;portConstraint=eastwest;newEdgeStyle={&quot;curved&quot;:0,&quot;rounded&quot;:0};" parent="1" vertex="1">
          <mxGeometry x="430" y="630" width="100" height="450" as="geometry" />
        </mxCell>
        <mxCell id="mnPGprtn1Q8Zct1dw6jw-1" value="" style="html=1;points=[[0,0,0,0,5],[0,1,0,0,-5],[1,0,0,0,5],[1,1,0,0,-5]];perimeter=orthogonalPerimeter;outlineConnect=0;targetShapes=umlLifeline;portConstraint=eastwest;newEdgeStyle={&quot;curved&quot;:0,&quot;rounded&quot;:0};" parent="fUh1H2vm5ostUlrf6R6P-2" vertex="1">
          <mxGeometry x="45" y="90" width="10" height="360" as="geometry" />
        </mxCell>
        <mxCell id="tSADSsTFeh5k4au1PDs2-1" value="" style="html=1;points=[[0,0,0,0,5],[0,1,0,0,-5],[1,0,0,0,5],[1,1,0,0,-5]];perimeter=orthogonalPerimeter;outlineConnect=0;targetShapes=umlLifeline;portConstraint=eastwest;newEdgeStyle={&quot;curved&quot;:0,&quot;rounded&quot;:0};" vertex="1" parent="fUh1H2vm5ostUlrf6R6P-2">
          <mxGeometry x="55" y="90" width="10" height="70" as="geometry" />
        </mxCell>
        <mxCell id="u8ye2x3MyeZDe7GLNoQn-1" value="" style="shape=umlLifeline;perimeter=lifelinePerimeter;whiteSpace=wrap;html=1;container=1;dropTarget=0;collapsible=0;recursiveResize=0;outlineConnect=0;portConstraint=eastwest;newEdgeStyle={&quot;curved&quot;:0,&quot;rounded&quot;:0};participant=umlActor;" parent="1" vertex="1">
          <mxGeometry x="260" y="630" width="20" height="450" as="geometry" />
        </mxCell>
        <mxCell id="u8ye2x3MyeZDe7GLNoQn-2" value="" style="endArrow=open;endFill=1;endSize=12;html=1;rounded=0;" parent="1" edge="1">
          <mxGeometry width="160" relative="1" as="geometry">
            <mxPoint x="270" y="720" as="sourcePoint" />
            <mxPoint x="482" y="720" as="targetPoint" />
          </mxGeometry>
        </mxCell>
        <mxCell id="u8ye2x3MyeZDe7GLNoQn-3" value="ID key in" style="edgeLabel;html=1;align=center;verticalAlign=middle;resizable=0;points=[];" parent="u8ye2x3MyeZDe7GLNoQn-2" vertex="1" connectable="0">
          <mxGeometry x="-0.1678" relative="1" as="geometry">
            <mxPoint as="offset" />
          </mxGeometry>
        </mxCell>
        <mxCell id="u8ye2x3MyeZDe7GLNoQn-6" value="alt" style="shape=umlFrame;whiteSpace=wrap;html=1;pointerEvents=0;" parent="1" vertex="1">
          <mxGeometry x="240" y="770" width="310" height="270" as="geometry" />
        </mxCell>
        <mxCell id="u8ye2x3MyeZDe7GLNoQn-13" value="" style="html=1;verticalAlign=bottom;endArrow=open;dashed=1;endSize=8;curved=0;rounded=0;" parent="1" edge="1">
          <mxGeometry x="0.1433" relative="1" as="geometry">
            <mxPoint x="485" y="820" as="sourcePoint" />
            <mxPoint x="274.8939393939395" y="820" as="targetPoint" />
            <mxPoint as="offset" />
          </mxGeometry>
        </mxCell>
        <mxCell id="u8ye2x3MyeZDe7GLNoQn-16" value="Succesful" style="edgeLabel;html=1;align=center;verticalAlign=middle;resizable=0;points=[];" parent="u8ye2x3MyeZDe7GLNoQn-13" vertex="1" connectable="0">
          <mxGeometry x="0.0372" y="-3" relative="1" as="geometry">
            <mxPoint as="offset" />
          </mxGeometry>
        </mxCell>
        <mxCell id="u8ye2x3MyeZDe7GLNoQn-17" value="Not found message / fail" style="html=1;verticalAlign=bottom;endArrow=open;dashed=1;endSize=8;curved=0;rounded=0;" parent="1" edge="1">
          <mxGeometry relative="1" as="geometry">
            <mxPoint x="478.11" y="970" as="sourcePoint" />
            <mxPoint x="270.0039393939395" y="970" as="targetPoint" />
          </mxGeometry>
        </mxCell>
        <mxCell id="mnPGprtn1Q8Zct1dw6jw-3" value="" style="endArrow=open;endFill=1;endSize=12;html=1;rounded=0;" parent="1" edge="1">
          <mxGeometry width="160" relative="1" as="geometry">
            <mxPoint x="480" y="900" as="sourcePoint" />
            <mxPoint x="480" y="900" as="targetPoint" />
          </mxGeometry>
        </mxCell>
        <mxCell id="3DFnsUYp-wT27a2WU61U-3" value="Check" style="html=1;align=left;spacingLeft=2;endArrow=block;rounded=0;edgeStyle=orthogonalEdgeStyle;curved=0;rounded=0;exitX=0.502;exitY=0.174;exitDx=0;exitDy=0;exitPerimeter=0;" parent="1" edge="1">
          <mxGeometry x="0.0349" y="-6" relative="1" as="geometry">
            <mxPoint x="494.18999999999994" y="740" as="sourcePoint" />
            <Array as="points">
              <mxPoint x="529.99" y="739.7" />
              <mxPoint x="529.99" y="761.7" />
            </Array>
            <mxPoint x="498.99" y="761.7" as="targetPoint" />
            <mxPoint as="offset" />
          </mxGeometry>
        </mxCell>
        <mxCell id="00pvVw5jVOX7PQzHbyb2-1" value="" style="line;strokeWidth=1;fillColor=none;align=left;verticalAlign=middle;spacingTop=-1;spacingLeft=3;spacingRight=3;rotatable=0;labelPosition=right;points=[];portConstraint=eastwest;strokeColor=inherit;" vertex="1" parent="1">
          <mxGeometry x="240" y="900" width="310" height="8" as="geometry" />
        </mxCell>
        <mxCell id="LL7n9ULzDvN70sxkWVwv-1" value="[id = valid]" style="text;html=1;align=center;verticalAlign=middle;resizable=0;points=[];autosize=1;strokeColor=none;fillColor=none;" vertex="1" parent="1">
          <mxGeometry x="290" y="770" width="80" height="30" as="geometry" />
        </mxCell>
        <mxCell id="tSADSsTFeh5k4au1PDs2-3" value="Loop" style="shape=umlFrame;whiteSpace=wrap;html=1;pointerEvents=0;" vertex="1" parent="1">
          <mxGeometry x="220" y="700" width="380" height="380" as="geometry" />
        </mxCell>
        <mxCell id="eXC6qcb8apkWHic-BjvB-1" value="User database" style="shape=umlLifeline;perimeter=lifelinePerimeter;whiteSpace=wrap;html=1;container=1;dropTarget=0;collapsible=0;recursiveResize=0;outlineConnect=0;portConstraint=eastwest;newEdgeStyle={&quot;curved&quot;:0,&quot;rounded&quot;:0};" vertex="1" parent="1">
          <mxGeometry x="630" y="630" width="100" height="450" as="geometry" />
        </mxCell>
        <mxCell id="eXC6qcb8apkWHic-BjvB-5" value="" style="html=1;points=[[0,0,0,0,5],[0,1,0,0,-5],[1,0,0,0,5],[1,1,0,0,-5]];perimeter=orthogonalPerimeter;outlineConnect=0;targetShapes=umlLifeline;portConstraint=eastwest;newEdgeStyle={&quot;curved&quot;:0,&quot;rounded&quot;:0};" vertex="1" parent="eXC6qcb8apkWHic-BjvB-1">
          <mxGeometry x="50" y="160" width="10" height="40" as="geometry" />
        </mxCell>
        <mxCell id="eXC6qcb8apkWHic-BjvB-6" value="Delete the record" style="html=1;align=left;spacingLeft=2;endArrow=block;rounded=0;edgeStyle=orthogonalEdgeStyle;curved=0;rounded=0;" edge="1" parent="eXC6qcb8apkWHic-BjvB-1">
          <mxGeometry relative="1" as="geometry">
            <mxPoint x="60" y="164.98" as="sourcePoint" />
            <Array as="points">
              <mxPoint x="90" y="194.98" />
            </Array>
            <mxPoint x="65" y="195.01999999999995" as="targetPoint" />
          </mxGeometry>
        </mxCell>
        <mxCell id="eXC6qcb8apkWHic-BjvB-4" value="" style="endArrow=open;endFill=1;endSize=12;html=1;rounded=0;" edge="1" parent="1" target="eXC6qcb8apkWHic-BjvB-1">
          <mxGeometry width="160" relative="1" as="geometry">
            <mxPoint x="490" y="790" as="sourcePoint" />
            <mxPoint x="640" y="790" as="targetPoint" />
          </mxGeometry>
        </mxCell>
      </root>
    </mxGraphModel>
  </diagram>
  <diagram id="nBXPS-6vSWnpiDKjLO5F" name="Update function">
    <mxGraphModel dx="605" dy="407" grid="1" gridSize="10" guides="1" tooltips="1" connect="1" arrows="1" fold="1" page="1" pageScale="1" pageWidth="827" pageHeight="1169" math="0" shadow="0">
      <root>
        <mxCell id="0" />
        <mxCell id="1" parent="0" />
        <mxCell id="bcU5ttVe543kco6kHbdA-1" value="" style="shape=umlLifeline;perimeter=lifelinePerimeter;whiteSpace=wrap;html=1;container=1;dropTarget=0;collapsible=0;recursiveResize=0;outlineConnect=0;portConstraint=eastwest;newEdgeStyle={&quot;curved&quot;:0,&quot;rounded&quot;:0};participant=umlActor;" parent="1" vertex="1">
          <mxGeometry x="200" y="150" width="20" height="300" as="geometry" />
        </mxCell>
        <mxCell id="bcU5ttVe543kco6kHbdA-2" value="BIM system update function" style="shape=umlLifeline;perimeter=lifelinePerimeter;whiteSpace=wrap;html=1;container=1;dropTarget=0;collapsible=0;recursiveResize=0;outlineConnect=0;portConstraint=eastwest;newEdgeStyle={&quot;curved&quot;:0,&quot;rounded&quot;:0};" parent="1" vertex="1">
          <mxGeometry x="330" y="150" width="100" height="300" as="geometry" />
        </mxCell>
        <mxCell id="bcU5ttVe543kco6kHbdA-3" value="Database" style="shape=umlLifeline;perimeter=lifelinePerimeter;whiteSpace=wrap;html=1;container=1;dropTarget=0;collapsible=0;recursiveResize=0;outlineConnect=0;portConstraint=eastwest;newEdgeStyle={&quot;curved&quot;:0,&quot;rounded&quot;:0};" parent="1" vertex="1">
          <mxGeometry x="530" y="150" width="100" height="300" as="geometry" />
        </mxCell>
        <mxCell id="bcU5ttVe543kco6kHbdA-4" value="" style="endArrow=open;endFill=1;endSize=12;html=1;rounded=0;" parent="1" target="bcU5ttVe543kco6kHbdA-2" edge="1">
          <mxGeometry width="160" relative="1" as="geometry">
            <mxPoint x="210" y="230" as="sourcePoint" />
            <mxPoint x="370" y="230" as="targetPoint" />
          </mxGeometry>
        </mxCell>
        <mxCell id="bcU5ttVe543kco6kHbdA-5" value="Author / title" style="edgeLabel;html=1;align=center;verticalAlign=middle;resizable=0;points=[];" parent="bcU5ttVe543kco6kHbdA-4" vertex="1" connectable="0">
          <mxGeometry x="-0.1454" y="1" relative="1" as="geometry">
            <mxPoint as="offset" />
          </mxGeometry>
        </mxCell>
        <mxCell id="bcU5ttVe543kco6kHbdA-7" value="" style="endArrow=open;endFill=1;endSize=12;html=1;rounded=0;" parent="1" target="bcU5ttVe543kco6kHbdA-3" edge="1">
          <mxGeometry width="160" relative="1" as="geometry">
            <mxPoint x="380" y="250" as="sourcePoint" />
            <mxPoint x="540" y="250" as="targetPoint" />
          </mxGeometry>
        </mxCell>
        <mxCell id="bcU5ttVe543kco6kHbdA-8" value="Author / title" style="edgeLabel;html=1;align=center;verticalAlign=middle;resizable=0;points=[];" parent="bcU5ttVe543kco6kHbdA-7" vertex="1" connectable="0">
          <mxGeometry x="-0.0906" y="1" relative="1" as="geometry">
            <mxPoint as="offset" />
          </mxGeometry>
        </mxCell>
        <mxCell id="_l6x-7sWd0w_1y2mQc0y-1" value="BIM system update_records" style="shape=umlLifeline;perimeter=lifelinePerimeter;whiteSpace=wrap;html=1;container=1;dropTarget=0;collapsible=0;recursiveResize=0;outlineConnect=0;portConstraint=eastwest;newEdgeStyle={&quot;curved&quot;:0,&quot;rounded&quot;:0};" parent="1" vertex="1">
          <mxGeometry x="530" y="640" width="100" height="540" as="geometry" />
        </mxCell>
        <mxCell id="SLWHITek2VCePiFzgtm0-12" value="" style="html=1;points=[[0,0,0,0,5],[0,1,0,0,-5],[1,0,0,0,5],[1,1,0,0,-5]];perimeter=orthogonalPerimeter;outlineConnect=0;targetShapes=umlLifeline;portConstraint=eastwest;newEdgeStyle={&quot;curved&quot;:0,&quot;rounded&quot;:0};" parent="_l6x-7sWd0w_1y2mQc0y-1" vertex="1">
          <mxGeometry x="45" y="60" width="10" height="450" as="geometry" />
        </mxCell>
        <mxCell id="SLWHITek2VCePiFzgtm0-13" value="Check" style="html=1;align=left;spacingLeft=2;endArrow=block;rounded=0;edgeStyle=orthogonalEdgeStyle;curved=0;rounded=0;" parent="_l6x-7sWd0w_1y2mQc0y-1" source="SLWHITek2VCePiFzgtm0-12" target="SLWHITek2VCePiFzgtm0-12" edge="1">
          <mxGeometry relative="1" as="geometry">
            <mxPoint x="60" y="70" as="sourcePoint" />
            <Array as="points">
              <mxPoint x="90" y="100" />
              <mxPoint x="90" y="120" />
            </Array>
            <mxPoint as="offset" />
          </mxGeometry>
        </mxCell>
        <mxCell id="_l6x-7sWd0w_1y2mQc0y-3" value="User database" style="shape=umlLifeline;perimeter=lifelinePerimeter;whiteSpace=wrap;html=1;container=1;dropTarget=0;collapsible=0;recursiveResize=0;outlineConnect=0;portConstraint=eastwest;newEdgeStyle={&quot;curved&quot;:0,&quot;rounded&quot;:0};" parent="1" vertex="1">
          <mxGeometry x="750" y="640" width="100" height="540" as="geometry" />
        </mxCell>
        <mxCell id="15Mu8vJ0eLnqGTlq-O8X-5" value="" style="html=1;points=[[0,0,0,0,5],[0,1,0,0,-5],[1,0,0,0,5],[1,1,0,0,-5]];perimeter=orthogonalPerimeter;outlineConnect=0;targetShapes=umlLifeline;portConstraint=eastwest;newEdgeStyle={&quot;curved&quot;:0,&quot;rounded&quot;:0};" vertex="1" parent="_l6x-7sWd0w_1y2mQc0y-3">
          <mxGeometry x="42" y="250" width="10" height="40" as="geometry" />
        </mxCell>
        <mxCell id="15Mu8vJ0eLnqGTlq-O8X-6" value="Update the db" style="html=1;align=left;spacingLeft=2;endArrow=block;rounded=0;edgeStyle=orthogonalEdgeStyle;curved=0;rounded=0;" edge="1" parent="_l6x-7sWd0w_1y2mQc0y-3">
          <mxGeometry x="0.1765" relative="1" as="geometry">
            <mxPoint x="47" y="250" as="sourcePoint" />
            <Array as="points">
              <mxPoint x="77" y="280" />
            </Array>
            <mxPoint x="52" y="280" as="targetPoint" />
            <mxPoint as="offset" />
          </mxGeometry>
        </mxCell>
        <mxCell id="_l6x-7sWd0w_1y2mQc0y-5" value="" style="shape=umlLifeline;perimeter=lifelinePerimeter;whiteSpace=wrap;html=1;container=1;dropTarget=0;collapsible=0;recursiveResize=0;outlineConnect=0;portConstraint=eastwest;newEdgeStyle={&quot;curved&quot;:0,&quot;rounded&quot;:0};participant=umlActor;" parent="1" vertex="1">
          <mxGeometry x="360" y="640" width="20" height="540" as="geometry" />
        </mxCell>
        <mxCell id="_l6x-7sWd0w_1y2mQc0y-7" value="" style="endArrow=open;endFill=1;endSize=12;html=1;rounded=0;" parent="1" edge="1">
          <mxGeometry width="160" relative="1" as="geometry">
            <mxPoint x="373" y="730" as="sourcePoint" />
            <mxPoint x="570" y="730" as="targetPoint" />
          </mxGeometry>
        </mxCell>
        <mxCell id="_l6x-7sWd0w_1y2mQc0y-8" value="Author or title key in" style="edgeLabel;html=1;align=center;verticalAlign=middle;resizable=0;points=[];" parent="_l6x-7sWd0w_1y2mQc0y-7" vertex="1" connectable="0">
          <mxGeometry x="-0.1678" relative="1" as="geometry">
            <mxPoint as="offset" />
          </mxGeometry>
        </mxCell>
        <mxCell id="_l6x-7sWd0w_1y2mQc0y-11" value="Loop" style="shape=umlFrame;whiteSpace=wrap;html=1;pointerEvents=0;" parent="1" vertex="1">
          <mxGeometry x="307.5" y="700" width="382.5" height="450" as="geometry" />
        </mxCell>
        <mxCell id="_l6x-7sWd0w_1y2mQc0y-25" value="" style="html=1;verticalAlign=bottom;endArrow=open;dashed=1;endSize=8;curved=0;rounded=0;" parent="1" edge="1">
          <mxGeometry x="-0.0476" y="-80" relative="1" as="geometry">
            <mxPoint x="585" y="924.5" as="sourcePoint" />
            <mxPoint x="375" y="924.5" as="targetPoint" />
            <mxPoint as="offset" />
          </mxGeometry>
        </mxCell>
        <mxCell id="58kC_FwMUP7oYWGLPeGM-3" value="Updated book succesful" style="edgeLabel;html=1;align=center;verticalAlign=middle;resizable=0;points=[];" parent="_l6x-7sWd0w_1y2mQc0y-25" vertex="1" connectable="0">
          <mxGeometry x="0.1499" y="-1" relative="1" as="geometry">
            <mxPoint as="offset" />
          </mxGeometry>
        </mxCell>
        <mxCell id="KZX8YKhCxGsG_SXuRBxS-3" value="" style="html=1;verticalAlign=bottom;endArrow=open;dashed=1;endSize=8;curved=0;rounded=0;" parent="1" edge="1">
          <mxGeometry relative="1" as="geometry">
            <mxPoint x="580" y="1120" as="sourcePoint" />
            <mxPoint x="579.9999999999998" y="1120" as="targetPoint" />
          </mxGeometry>
        </mxCell>
        <mxCell id="SLWHITek2VCePiFzgtm0-2" value="" style="line;strokeWidth=1;fillColor=none;align=left;verticalAlign=middle;spacingTop=-1;spacingLeft=3;spacingRight=3;rotatable=0;labelPosition=right;points=[];portConstraint=eastwest;strokeColor=inherit;" parent="1" vertex="1">
          <mxGeometry x="310" y="830" width="380" height="8" as="geometry" />
        </mxCell>
        <mxCell id="58kC_FwMUP7oYWGLPeGM-1" value="alt" style="shape=umlFrame;whiteSpace=wrap;html=1;pointerEvents=0;" parent="1" vertex="1">
          <mxGeometry x="345" y="850" width="295" height="270" as="geometry" />
        </mxCell>
        <mxCell id="58kC_FwMUP7oYWGLPeGM-2" value="" style="line;strokeWidth=1;fillColor=none;align=left;verticalAlign=middle;spacingTop=-1;spacingLeft=3;spacingRight=3;rotatable=0;labelPosition=right;points=[];portConstraint=eastwest;strokeColor=inherit;" parent="1" vertex="1">
          <mxGeometry x="345" y="981" width="295" height="8" as="geometry" />
        </mxCell>
        <mxCell id="58kC_FwMUP7oYWGLPeGM-4" value="" style="html=1;verticalAlign=bottom;endArrow=open;dashed=1;endSize=8;curved=0;rounded=0;" parent="1" target="_l6x-7sWd0w_1y2mQc0y-5" edge="1">
          <mxGeometry x="-0.0001" relative="1" as="geometry">
            <mxPoint x="580" y="1050" as="sourcePoint" />
            <mxPoint x="500" y="1050" as="targetPoint" />
            <mxPoint as="offset" />
          </mxGeometry>
        </mxCell>
        <mxCell id="58kC_FwMUP7oYWGLPeGM-5" value="Not found&amp;nbsp;" style="edgeLabel;html=1;align=center;verticalAlign=middle;resizable=0;points=[];" parent="58kC_FwMUP7oYWGLPeGM-4" vertex="1" connectable="0">
          <mxGeometry x="0.0294" y="1" relative="1" as="geometry">
            <mxPoint as="offset" />
          </mxGeometry>
        </mxCell>
        <mxCell id="58kC_FwMUP7oYWGLPeGM-7" value="[title = valid]" style="text;html=1;align=center;verticalAlign=middle;resizable=0;points=[];autosize=1;strokeColor=none;fillColor=none;" parent="1" vertex="1">
          <mxGeometry x="395" y="858" width="90" height="30" as="geometry" />
        </mxCell>
        <mxCell id="58kC_FwMUP7oYWGLPeGM-8" value="[else]" style="text;html=1;align=center;verticalAlign=middle;resizable=0;points=[];autosize=1;strokeColor=none;fillColor=none;" parent="1" vertex="1">
          <mxGeometry x="364" y="989" width="50" height="30" as="geometry" />
        </mxCell>
        <mxCell id="15Mu8vJ0eLnqGTlq-O8X-1" value="" style="html=1;points=[[0,0,0,0,5],[0,1,0,0,-5],[1,0,0,0,5],[1,1,0,0,-5]];perimeter=orthogonalPerimeter;outlineConnect=0;targetShapes=umlLifeline;portConstraint=eastwest;newEdgeStyle={&quot;curved&quot;:0,&quot;rounded&quot;:0};" vertex="1" parent="1">
          <mxGeometry x="580" y="730" width="10" height="160" as="geometry" />
        </mxCell>
        <mxCell id="15Mu8vJ0eLnqGTlq-O8X-3" value="" style="endArrow=open;endFill=1;endSize=12;html=1;rounded=0;" edge="1" parent="1" target="_l6x-7sWd0w_1y2mQc0y-3">
          <mxGeometry width="160" relative="1" as="geometry">
            <mxPoint x="590" y="888" as="sourcePoint" />
            <mxPoint x="750" y="888" as="targetPoint" />
          </mxGeometry>
        </mxCell>
        <mxCell id="15Mu8vJ0eLnqGTlq-O8X-4" value="Update the data" style="edgeLabel;html=1;align=center;verticalAlign=middle;resizable=0;points=[];" vertex="1" connectable="0" parent="15Mu8vJ0eLnqGTlq-O8X-3">
          <mxGeometry x="-0.096" y="-1" relative="1" as="geometry">
            <mxPoint as="offset" />
          </mxGeometry>
        </mxCell>
      </root>
    </mxGraphModel>
  </diagram>
  <diagram id="DF7MOOQNQOrkjfUUQJl1" name="filter function">
    <mxGraphModel dx="907" dy="611" grid="1" gridSize="10" guides="1" tooltips="1" connect="1" arrows="1" fold="1" page="1" pageScale="1" pageWidth="827" pageHeight="1169" math="0" shadow="0">
      <root>
        <mxCell id="0" />
        <mxCell id="1" parent="0" />
        <mxCell id="nhRiKNryRcBcYVrL1GTb-1" value="" style="shape=umlLifeline;perimeter=lifelinePerimeter;whiteSpace=wrap;html=1;container=1;dropTarget=0;collapsible=0;recursiveResize=0;outlineConnect=0;portConstraint=eastwest;newEdgeStyle={&quot;curved&quot;:0,&quot;rounded&quot;:0};participant=umlActor;" parent="1" vertex="1">
          <mxGeometry x="150" y="170" width="20" height="430" as="geometry" />
        </mxCell>
        <mxCell id="nhRiKNryRcBcYVrL1GTb-2" value="BIM system&amp;nbsp;&lt;div&gt;&amp;nbsp;filter_author&lt;/div&gt;" style="shape=umlLifeline;perimeter=lifelinePerimeter;whiteSpace=wrap;html=1;container=1;dropTarget=0;collapsible=0;recursiveResize=0;outlineConnect=0;portConstraint=eastwest;newEdgeStyle={&quot;curved&quot;:0,&quot;rounded&quot;:0};" parent="1" vertex="1">
          <mxGeometry x="314" y="170" width="116" height="440" as="geometry" />
        </mxCell>
        <mxCell id="s-7tMlqlFWIs0Z-FmLtX-1" value="" style="html=1;points=[[0,0,0,0,5],[0,1,0,0,-5],[1,0,0,0,5],[1,1,0,0,-5]];perimeter=orthogonalPerimeter;outlineConnect=0;targetShapes=umlLifeline;portConstraint=eastwest;newEdgeStyle={&quot;curved&quot;:0,&quot;rounded&quot;:0};" parent="nhRiKNryRcBcYVrL1GTb-2" vertex="1">
          <mxGeometry x="53" y="90" width="10" height="20" as="geometry" />
        </mxCell>
        <mxCell id="ZO5X2VyOTlJlN-P5Xv-v-2" value="Checks the input" style="html=1;align=left;spacingLeft=2;endArrow=block;rounded=0;edgeStyle=orthogonalEdgeStyle;curved=0;rounded=0;" parent="nhRiKNryRcBcYVrL1GTb-2" edge="1">
          <mxGeometry relative="1" as="geometry">
            <mxPoint x="63" y="94.98" as="sourcePoint" />
            <Array as="points">
              <mxPoint x="93" y="94.98" />
              <mxPoint x="93" y="104.98" />
              <mxPoint x="68" y="104.98" />
            </Array>
            <mxPoint x="68" y="104.98" as="targetPoint" />
          </mxGeometry>
        </mxCell>
        <mxCell id="nhRiKNryRcBcYVrL1GTb-3" value="User database" style="shape=umlLifeline;perimeter=lifelinePerimeter;whiteSpace=wrap;html=1;container=1;dropTarget=0;collapsible=0;recursiveResize=0;outlineConnect=0;portConstraint=eastwest;newEdgeStyle={&quot;curved&quot;:0,&quot;rounded&quot;:0};" parent="1" vertex="1">
          <mxGeometry x="530" y="170" width="100" height="450" as="geometry" />
        </mxCell>
        <mxCell id="s-7tMlqlFWIs0Z-FmLtX-3" value="" style="html=1;points=[[0,0,0,0,5],[0,1,0,0,-5],[1,0,0,0,5],[1,1,0,0,-5]];perimeter=orthogonalPerimeter;outlineConnect=0;targetShapes=umlLifeline;portConstraint=eastwest;newEdgeStyle={&quot;curved&quot;:0,&quot;rounded&quot;:0};" parent="nhRiKNryRcBcYVrL1GTb-3" vertex="1">
          <mxGeometry x="45" y="110" width="10" height="50" as="geometry" />
        </mxCell>
        <mxCell id="FnDXZauHdOlCNUszAT3F-1" value="" style="endArrow=open;endFill=1;endSize=12;html=1;rounded=0;" parent="1" target="nhRiKNryRcBcYVrL1GTb-2" edge="1">
          <mxGeometry width="160" relative="1" as="geometry">
            <mxPoint x="160" y="260" as="sourcePoint" />
            <mxPoint x="320" y="260" as="targetPoint" />
          </mxGeometry>
        </mxCell>
        <mxCell id="FnDXZauHdOlCNUszAT3F-2" value="Author or title key in" style="edgeLabel;html=1;align=center;verticalAlign=middle;resizable=0;points=[];" parent="FnDXZauHdOlCNUszAT3F-1" vertex="1" connectable="0">
          <mxGeometry x="-0.1678" relative="1" as="geometry">
            <mxPoint as="offset" />
          </mxGeometry>
        </mxCell>
        <mxCell id="FnDXZauHdOlCNUszAT3F-3" value="" style="endArrow=open;endFill=1;endSize=12;html=1;rounded=0;" parent="1" target="nhRiKNryRcBcYVrL1GTb-3" edge="1">
          <mxGeometry width="160" relative="1" as="geometry">
            <mxPoint x="370" y="280" as="sourcePoint" />
            <mxPoint x="530" y="280" as="targetPoint" />
          </mxGeometry>
        </mxCell>
        <mxCell id="FnDXZauHdOlCNUszAT3F-4" value="Author / title" style="edgeLabel;html=1;align=center;verticalAlign=middle;resizable=0;points=[];" parent="FnDXZauHdOlCNUszAT3F-3" vertex="1" connectable="0">
          <mxGeometry x="-0.041" relative="1" as="geometry">
            <mxPoint as="offset" />
          </mxGeometry>
        </mxCell>
        <mxCell id="FnDXZauHdOlCNUszAT3F-5" value="alt" style="shape=umlFrame;whiteSpace=wrap;html=1;pointerEvents=0;" parent="1" vertex="1">
          <mxGeometry x="117" y="310" width="510" height="220" as="geometry" />
        </mxCell>
        <mxCell id="FnDXZauHdOlCNUszAT3F-6" value="Not found message / fail" style="html=1;verticalAlign=bottom;endArrow=open;dashed=1;endSize=8;curved=0;rounded=0;" parent="1" edge="1">
          <mxGeometry relative="1" as="geometry">
            <mxPoint x="368.11" y="360" as="sourcePoint" />
            <mxPoint x="160.0039393939395" y="360" as="targetPoint" />
          </mxGeometry>
        </mxCell>
        <mxCell id="0qMpIIdI-YujkRhcopQU-1" value="" style="endArrow=open;endFill=1;endSize=12;html=1;rounded=0;" parent="1" target="nhRiKNryRcBcYVrL1GTb-2" edge="1">
          <mxGeometry width="160" relative="1" as="geometry">
            <mxPoint x="160" y="430" as="sourcePoint" />
            <mxPoint x="320" y="430" as="targetPoint" />
          </mxGeometry>
        </mxCell>
        <mxCell id="0qMpIIdI-YujkRhcopQU-2" value="Author / title" style="edgeLabel;html=1;align=center;verticalAlign=middle;resizable=0;points=[];" parent="0qMpIIdI-YujkRhcopQU-1" vertex="1" connectable="0">
          <mxGeometry x="-0.179" y="2" relative="1" as="geometry">
            <mxPoint x="13" as="offset" />
          </mxGeometry>
        </mxCell>
        <mxCell id="0qMpIIdI-YujkRhcopQU-3" value="" style="endArrow=open;endFill=1;endSize=12;html=1;rounded=0;" parent="1" target="JLpW6Xtq7ie8VWJZ2d_p-2" edge="1">
          <mxGeometry width="160" relative="1" as="geometry">
            <mxPoint x="367" y="460" as="sourcePoint" />
            <mxPoint x="576.5" y="460" as="targetPoint" />
          </mxGeometry>
        </mxCell>
        <mxCell id="0qMpIIdI-YujkRhcopQU-4" value="Author / title" style="edgeLabel;html=1;align=center;verticalAlign=middle;resizable=0;points=[];" parent="0qMpIIdI-YujkRhcopQU-3" vertex="1" connectable="0">
          <mxGeometry x="0.1615" y="2" relative="1" as="geometry">
            <mxPoint x="-22" y="2" as="offset" />
          </mxGeometry>
        </mxCell>
        <mxCell id="0qMpIIdI-YujkRhcopQU-5" value="Book list" style="html=1;verticalAlign=bottom;endArrow=open;dashed=1;endSize=8;curved=0;rounded=0;" parent="1" edge="1">
          <mxGeometry x="-0.0019" relative="1" as="geometry">
            <mxPoint x="580.11" y="490" as="sourcePoint" />
            <mxPoint x="370.0039393939395" y="490" as="targetPoint" />
            <mxPoint as="offset" />
          </mxGeometry>
        </mxCell>
        <mxCell id="0qMpIIdI-YujkRhcopQU-6" value="Book list" style="html=1;verticalAlign=bottom;endArrow=open;dashed=1;endSize=8;curved=0;rounded=0;" parent="1" edge="1">
          <mxGeometry x="0.1433" relative="1" as="geometry">
            <mxPoint x="370" y="510" as="sourcePoint" />
            <mxPoint x="159.8939393939395" y="510" as="targetPoint" />
            <mxPoint as="offset" />
          </mxGeometry>
        </mxCell>
        <mxCell id="s-7tMlqlFWIs0Z-FmLtX-4" value="Not found message / fail" style="html=1;verticalAlign=bottom;endArrow=open;dashed=1;endSize=8;curved=0;rounded=0;" parent="1" edge="1">
          <mxGeometry x="0.0049" relative="1" as="geometry">
            <mxPoint x="580" y="330" as="sourcePoint" />
            <mxPoint x="371.83333333333337" y="330" as="targetPoint" />
            <mxPoint as="offset" />
          </mxGeometry>
        </mxCell>
        <mxCell id="JLpW6Xtq7ie8VWJZ2d_p-1" value="" style="html=1;points=[[0,0,0,0,5],[0,1,0,0,-5],[1,0,0,0,5],[1,1,0,0,-5]];perimeter=orthogonalPerimeter;outlineConnect=0;targetShapes=umlLifeline;portConstraint=eastwest;newEdgeStyle={&quot;curved&quot;:0,&quot;rounded&quot;:0};" parent="1" vertex="1">
          <mxGeometry x="367" y="330" width="10" height="30" as="geometry" />
        </mxCell>
        <mxCell id="JLpW6Xtq7ie8VWJZ2d_p-2" value="" style="html=1;points=[[0,0,0,0,5],[0,1,0,0,-5],[1,0,0,0,5],[1,1,0,0,-5]];perimeter=orthogonalPerimeter;outlineConnect=0;targetShapes=umlLifeline;portConstraint=eastwest;newEdgeStyle={&quot;curved&quot;:0,&quot;rounded&quot;:0};" parent="1" vertex="1">
          <mxGeometry x="571.5" y="460" width="10" height="30" as="geometry" />
        </mxCell>
        <mxCell id="JLpW6Xtq7ie8VWJZ2d_p-3" value="" style="html=1;points=[[0,0,0,0,5],[0,1,0,0,-5],[1,0,0,0,5],[1,1,0,0,-5]];perimeter=orthogonalPerimeter;outlineConnect=0;targetShapes=umlLifeline;portConstraint=eastwest;newEdgeStyle={&quot;curved&quot;:0,&quot;rounded&quot;:0};" parent="1" vertex="1">
          <mxGeometry x="370" y="430" width="10" height="30" as="geometry" />
        </mxCell>
        <mxCell id="JLpW6Xtq7ie8VWJZ2d_p-4" value="" style="html=1;points=[[0,0,0,0,5],[0,1,0,0,-5],[1,0,0,0,5],[1,1,0,0,-5]];perimeter=orthogonalPerimeter;outlineConnect=0;targetShapes=umlLifeline;portConstraint=eastwest;newEdgeStyle={&quot;curved&quot;:0,&quot;rounded&quot;:0};" parent="1" vertex="1">
          <mxGeometry x="367" y="490" width="10" height="20" as="geometry" />
        </mxCell>
      </root>
    </mxGraphModel>
  </diagram>
  <diagram id="isIB1HJu8Kj4dss5AFTn" name="Sort function">
    <mxGraphModel dx="948" dy="611" grid="1" gridSize="10" guides="1" tooltips="1" connect="1" arrows="1" fold="1" page="1" pageScale="1" pageWidth="827" pageHeight="1169" math="0" shadow="0">
      <root>
        <mxCell id="0" />
        <mxCell id="1" parent="0" />
        <mxCell id="IzP5-UjYwd16eCd8D3fC-1" value="" style="shape=umlLifeline;perimeter=lifelinePerimeter;whiteSpace=wrap;html=1;container=1;dropTarget=0;collapsible=0;recursiveResize=0;outlineConnect=0;portConstraint=eastwest;newEdgeStyle={&quot;curved&quot;:0,&quot;rounded&quot;:0};participant=umlActor;" parent="1" vertex="1">
          <mxGeometry x="240" y="130" width="20" height="450" as="geometry" />
        </mxCell>
        <mxCell id="IzP5-UjYwd16eCd8D3fC-2" value="BIM System&amp;nbsp;&lt;div&gt;get_sorted_books&amp;nbsp;&lt;/div&gt;" style="shape=umlLifeline;perimeter=lifelinePerimeter;whiteSpace=wrap;html=1;container=1;dropTarget=0;collapsible=0;recursiveResize=0;outlineConnect=0;portConstraint=eastwest;newEdgeStyle={&quot;curved&quot;:0,&quot;rounded&quot;:0};" parent="1" vertex="1">
          <mxGeometry x="364" y="130" width="100" height="460" as="geometry" />
        </mxCell>
        <mxCell id="_ul0vsH7M3X2PJIVTxYe-10" value="" style="html=1;points=[[0,0,0,0,5],[0,1,0,0,-5],[1,0,0,0,5],[1,1,0,0,-5]];perimeter=orthogonalPerimeter;outlineConnect=0;targetShapes=umlLifeline;portConstraint=eastwest;newEdgeStyle={&quot;curved&quot;:0,&quot;rounded&quot;:0};" parent="IzP5-UjYwd16eCd8D3fC-2" vertex="1">
          <mxGeometry x="50" y="90" width="10" height="40" as="geometry" />
        </mxCell>
        <mxCell id="_ul0vsH7M3X2PJIVTxYe-11" value="Checks the option&amp;nbsp;" style="html=1;align=left;spacingLeft=2;endArrow=block;rounded=0;edgeStyle=orthogonalEdgeStyle;curved=0;rounded=0;" parent="IzP5-UjYwd16eCd8D3fC-2" edge="1">
          <mxGeometry x="0.4118" y="5" relative="1" as="geometry">
            <mxPoint x="60" y="99.96" as="sourcePoint" />
            <Array as="points">
              <mxPoint x="90" y="129.96" />
            </Array>
            <mxPoint x="65" y="129.9599999999999" as="targetPoint" />
            <mxPoint x="5" y="-5" as="offset" />
          </mxGeometry>
        </mxCell>
        <mxCell id="IzP5-UjYwd16eCd8D3fC-3" value="User Database" style="shape=umlLifeline;perimeter=lifelinePerimeter;whiteSpace=wrap;html=1;container=1;dropTarget=0;collapsible=0;recursiveResize=0;outlineConnect=0;portConstraint=eastwest;newEdgeStyle={&quot;curved&quot;:0,&quot;rounded&quot;:0};" parent="1" vertex="1">
          <mxGeometry x="550" y="130" width="100" height="460" as="geometry" />
        </mxCell>
        <mxCell id="_ul0vsH7M3X2PJIVTxYe-4" value="" style="endArrow=open;endFill=1;endSize=12;html=1;rounded=0;" parent="1" edge="1">
          <mxGeometry width="160" relative="1" as="geometry">
            <mxPoint x="250" y="220" as="sourcePoint" />
            <mxPoint x="410" y="220" as="targetPoint" />
          </mxGeometry>
        </mxCell>
        <mxCell id="_ul0vsH7M3X2PJIVTxYe-5" value="Option Title / Price" style="edgeLabel;html=1;align=center;verticalAlign=middle;resizable=0;points=[];" parent="_ul0vsH7M3X2PJIVTxYe-4" vertex="1" connectable="0">
          <mxGeometry x="0.0458" relative="1" as="geometry">
            <mxPoint as="offset" />
          </mxGeometry>
        </mxCell>
        <mxCell id="_ul0vsH7M3X2PJIVTxYe-12" value="alt" style="shape=umlFrame;whiteSpace=wrap;html=1;pointerEvents=0;" parent="1" vertex="1">
          <mxGeometry x="210" y="270" width="450" height="260" as="geometry" />
        </mxCell>
        <mxCell id="_ul0vsH7M3X2PJIVTxYe-13" value="Invalid option&amp;nbsp;" style="html=1;verticalAlign=bottom;endArrow=open;dashed=1;endSize=8;curved=0;rounded=0;" parent="1" edge="1">
          <mxGeometry relative="1" as="geometry">
            <mxPoint x="413.04" y="310" as="sourcePoint" />
            <mxPoint x="248.99945945945947" y="310" as="targetPoint" />
          </mxGeometry>
        </mxCell>
        <mxCell id="_ul0vsH7M3X2PJIVTxYe-16" value="" style="endArrow=open;endFill=1;endSize=12;html=1;rounded=0;" parent="1" target="IzP5-UjYwd16eCd8D3fC-2" edge="1">
          <mxGeometry width="160" relative="1" as="geometry">
            <mxPoint x="250" y="369.73" as="sourcePoint" />
            <mxPoint x="410" y="369.73" as="targetPoint" />
          </mxGeometry>
        </mxCell>
        <mxCell id="_ul0vsH7M3X2PJIVTxYe-18" value="Option title / price&amp;nbsp;" style="edgeLabel;html=1;align=center;verticalAlign=middle;resizable=0;points=[];" parent="_ul0vsH7M3X2PJIVTxYe-16" vertex="1" connectable="0">
          <mxGeometry x="-0.0869" relative="1" as="geometry">
            <mxPoint as="offset" />
          </mxGeometry>
        </mxCell>
        <mxCell id="_ul0vsH7M3X2PJIVTxYe-17" value="" style="endArrow=open;endFill=1;endSize=12;html=1;rounded=0;" parent="1" target="IzP5-UjYwd16eCd8D3fC-3" edge="1">
          <mxGeometry width="160" relative="1" as="geometry">
            <mxPoint x="414" y="440" as="sourcePoint" />
            <mxPoint x="580" y="440" as="targetPoint" />
          </mxGeometry>
        </mxCell>
        <mxCell id="_ul0vsH7M3X2PJIVTxYe-19" value="Get the data&amp;nbsp;" style="edgeLabel;html=1;align=center;verticalAlign=middle;resizable=0;points=[];" parent="_ul0vsH7M3X2PJIVTxYe-17" vertex="1" connectable="0">
          <mxGeometry x="-0.145" y="2" relative="1" as="geometry">
            <mxPoint as="offset" />
          </mxGeometry>
        </mxCell>
        <mxCell id="_ul0vsH7M3X2PJIVTxYe-20" value="" style="html=1;points=[[0,0,0,0,5],[0,1,0,0,-5],[1,0,0,0,5],[1,1,0,0,-5]];perimeter=orthogonalPerimeter;outlineConnect=0;targetShapes=umlLifeline;portConstraint=eastwest;newEdgeStyle={&quot;curved&quot;:0,&quot;rounded&quot;:0};" parent="1" vertex="1">
          <mxGeometry x="415" y="370" width="10" height="40" as="geometry" />
        </mxCell>
        <mxCell id="_ul0vsH7M3X2PJIVTxYe-21" value="Checks the option&amp;nbsp;" style="html=1;align=left;spacingLeft=2;endArrow=block;rounded=0;edgeStyle=orthogonalEdgeStyle;curved=0;rounded=0;" parent="1" edge="1">
          <mxGeometry x="0.4118" y="5" relative="1" as="geometry">
            <mxPoint x="425" y="379.96" as="sourcePoint" />
            <Array as="points">
              <mxPoint x="455" y="409.96000000000004" />
            </Array>
            <mxPoint x="430" y="409.9599999999999" as="targetPoint" />
            <mxPoint x="5" y="-5" as="offset" />
          </mxGeometry>
        </mxCell>
        <mxCell id="_ul0vsH7M3X2PJIVTxYe-22" value="Return sorted books" style="html=1;verticalAlign=bottom;endArrow=open;dashed=1;endSize=8;curved=0;rounded=0;" parent="1" target="IzP5-UjYwd16eCd8D3fC-2" edge="1">
          <mxGeometry relative="1" as="geometry">
            <mxPoint x="600" y="490" as="sourcePoint" />
            <mxPoint x="520" y="490" as="targetPoint" />
          </mxGeometry>
        </mxCell>
        <mxCell id="_ul0vsH7M3X2PJIVTxYe-23" value="Return sorted books" style="html=1;verticalAlign=bottom;endArrow=open;dashed=1;endSize=8;curved=0;rounded=0;" parent="1" target="IzP5-UjYwd16eCd8D3fC-1" edge="1">
          <mxGeometry relative="1" as="geometry">
            <mxPoint x="415" y="510" as="sourcePoint" />
            <mxPoint x="335" y="510" as="targetPoint" />
          </mxGeometry>
        </mxCell>
      </root>
    </mxGraphModel>
  </diagram>
  <diagram id="Hub0kHeb-N6eX4_QuPLh" name="Page-7">
    <mxGraphModel dx="948" dy="611" grid="1" gridSize="10" guides="1" tooltips="1" connect="1" arrows="1" fold="1" page="1" pageScale="1" pageWidth="827" pageHeight="1169" math="0" shadow="0">
      <root>
        <mxCell id="0" />
        <mxCell id="1" parent="0" />
      </root>
    </mxGraphModel>
  </diagram>
</mxfile>
